<svg xmlns="http://www.w3.org/2000/svg" viewBox="65 15 100 155">
<style type="text/css">
	.st0{fill:#A6C47B;}
</style>
<path class="st0" d="M80.4,79.9c0,0,18,14.2,31.5,24.6c16.9,12.9,22.4,33.8,21.2,61.4c0,0-33.5-2.9-50.1-33.8
	C73.4,114.3,80.4,79.9,80.4,79.9z"/>
<path class="st0" d="M153.9,58.6c0,0,8,20.2,5.7,32.9c-2.1,11.7-16.9,18.3-24.6,20.2c-1,0.3-2.1-0.4-2.3-1.4
	c-0.7-3.1-1-9.8,5.5-16.9C147.1,83.7,154.1,75.1,153.9,58.6z"/>
<path class="st0" d="M126,22.3c0,0,15,15.8,16.8,36.3c0,0,2.3,22.8-14.7,35.9c0,0,0-11-2-21.3c-0.9-4.7-2-9.7-2.6-13.6
	c-0.1-0.9-0.3-2.2-1.2-2.2l0,0c-0.8,0-1,0.6-1.2,1.3c-0.8,2.6-1.8,7.7-2.8,16.6c-1,9.6-1.1,16.5-1.8,20.1c0,0-13.4-10-11.9-37.1
	c0,0,0.4-10,10.6-22.9C125.2,22.8,126,22.3,126,22.3z"/>
</svg>
