<?xml version="1.0" encoding="utf-8"?>
<!-- Generator: Adobe Illustrator 27.0.0, SVG Export Plug-In . SVG Version: 6.00 Build 0)  -->
<svg version="1.1" xmlns="http://www.w3.org/2000/svg" xmlns:xlink="http://www.w3.org/1999/xlink" x="0px" y="0px"
	 viewBox="65 15 825 155" xml:space="preserve">
<style type="text/css">
	.st0{fill:#A6C47B;}
	.st1{fill:#484635;stroke:#000000;stroke-width:0.35;stroke-miterlimit:10;}
</style>
<g id="Orignal">
</g>
<g id="Design">
	<path class="st0" d="M80.4,79.9c0,0,18,14.2,31.5,24.6c16.9,12.9,22.4,33.8,21.2,61.4c0,0-33.5-2.9-50.1-33.8
		C73.4,114.3,80.4,79.9,80.4,79.9z"/>
	<path class="st0" d="M153.9,58.6c0,0,8,20.2,5.7,32.9c-2.1,11.7-16.9,18.3-24.6,20.2c-1,0.3-2.1-0.4-2.3-1.4
		c-0.7-3.1-1-9.8,5.5-16.9C147.1,83.7,154.1,75.1,153.9,58.6z"/>
	<path class="st0" d="M126,22.3c0,0,15,15.8,16.8,36.3c0,0,2.3,22.8-14.7,35.9c0,0,0-11-2-21.3c-0.9-4.7-2-9.7-2.6-13.6
		c-0.1-0.9-0.3-2.2-1.2-2.2l0,0c-0.8,0-1,0.6-1.2,1.3c-0.8,2.6-1.8,7.7-2.8,16.6c-1,9.6-1.1,16.5-1.8,20.1c0,0-13.4-10-11.9-37.1
		c0,0,0.4-10,10.6-22.9C125.2,22.8,126,22.3,126,22.3z"/>
</g>
<g id="Text">
	<g>
		<g>
			<path class="st1" d="M257.3,141.2l-0.2-67.9l-24.2,54h-5.4l-25.6-54.4l1.1,68.3h-11l-0.4-85.8h11.6l26.4,55l26.6-55h11.3
				l0.6,85.8H257.3z"/>
		</g>
	</g>
	<g>
		<g>
			<path class="st1" d="M282.4,62.6c0-4.6,3.1-6.7,7-6.7c4.1,0,7,2.1,7,6.7c0,4.6-3,6.8-7,6.8C285.5,69.5,282.4,67.2,282.4,62.6z
				 M284.1,79.3h10.5v61.8h-10.5V79.3z"/>
		</g>
	</g>
	<g>
		<g>
			<path class="st1" d="M394.1,102.9v38.3h-10.9v-35.8c0-12-3.9-16.8-11.5-16.8c-8.8,0-13.9,6.2-13.9,16.3v36.3h-10.9v-36.4
				c0-10.6-3.5-16-10.7-16c-8.7,0-13.4,7.1-13.4,14.6l-0.3,37.8h-11V80.3h8.6l0,7.4c3.5-6.3,11.4-8.9,17.9-8.9
				c8.3,0,13.2,3.6,16.9,9.8c3.5-6.9,11.1-9.5,20.1-9.5C386.8,79,394.1,87.4,394.1,102.9z"/>
		</g>
	</g>
	<g>
		<g>
			<path class="st1" d="M435.1,131.4c9.2,0,13.1-3.4,16.8-5.6l4.3,8.2c-2.9,2.9-11,7.8-22.2,7.8c-19.2,0-29.4-12-29.4-32.1
				c0-18.4,10.8-30.6,27.7-30.6s25.4,12.9,25.4,29v5.4h-42.3C416.3,125.4,423.6,131.4,435.1,131.4z M415.6,104.9h31.7
				c-0.8-11.4-7.6-15.8-14.8-15.8C424.1,89.2,416.9,93.3,415.6,104.9z"/>
		</g>
	</g>
	<path class="st1" d="M552.7,55.4h7.7V141h-7.7V55.4z"/>
	<path class="st1" d="M659.1,103.2V141h-7v-36.4c0-10.9-4.1-18.9-13.9-18.9c-10.4,0-16.2,8.7-16.2,18.5V141h-8.2v-37.1
		c1-12-4-18.5-12.5-18.5c-10.4,0-17.3,9-17.3,15.3V141h-7V80.3h6.5l0.4,8.1c3.3-6.7,10.5-9.3,19.7-9.3c8.7,0,14.5,4.4,17.1,12.6
		c3.2-7.3,9.9-12.6,19.6-12.6C652.3,79,659.1,87.1,659.1,103.2z"/>
	<path class="st1" d="M725.4,110c0,20.7-10,33.7-28.6,32.5c-9.6-0.6-9.6-3.3-15-6.8v32.2h-7V80.3h6.9l0,7.9
		c3.3-5.9,10.3-9.2,19.2-9.2C716,79,725.4,89.1,725.4,110z M719.6,110.4c0-15.8-9.1-25.4-20.1-25.4c-10,0-18,10.1-18,18.8v15.5
		c0,8.3,6.6,17,14.8,17c0.1,0,0.1,0,0.2,0C712.9,136.4,719.6,127.1,719.6,110.4z"/>
	<path class="st1" d="M782.7,102.3V141h-7.4l-0.1-9.1c-3.9,7-11,10.6-21.3,10.6c-11.8,0-18.3-7.1-18.3-17.8
		c0-11.6,7.4-19.3,23.8-19.3c6.3,0,11.8,0.8,15.5,1.9v-4.9c0-12.1-5.4-16.5-15.4-16.8c-8.6-0.3-14.7,3-20,7.2l-2.9-5.6
		c5.5-5,14-8.1,23.4-8.1C774.9,79,782.7,87,782.7,102.3z M774.7,120.9V114c-3.6-0.9-9.1-3.2-14.8-3.2c-11.4,0-17.5,5.7-17.5,13.3
		c0,7.6,5.8,12.3,13.2,12.3C766.5,136.4,774.4,127.9,774.7,120.9z"/>
	<path class="st1" d="M793.4,110.9c0-20,9-31.9,26.2-31.9c12.3,0,17.2,3.9,21.7,6.5l-2.5,5.9c-5.8-3.5-10.2-5.9-19.1-6.1
		c-11.3-0.2-19.3,9.9-19.3,25.6c0,16.3,8.8,25.8,20.7,25.8c9.9,0,16.4-4.3,18.9-6.7l2.3,4.9c-3.3,3.4-10.1,7.6-21.6,7.6
		C803.9,142.5,793.4,132.4,793.4,110.9z"/>
	<path class="st1" d="M865.8,87.1v38.9c0,7,2.9,10.3,7.2,10.3c4,0,6.6-1,8.4-1.8l0.7,6c-2,0.8-5.7,2-11.2,2
		c-8.5,0-12.1-3.3-12.1-16.4v-39h-12.8v-6.8h12.8V65.1h7v15.2H882v6.8H865.8z"/>
	<path class="st1" d="M506.9,83.2c0,0-0.1-0.1-0.1-0.1c-2.6-1.8-5.7-3-9.5-3.6c-15.6-3.2-29.6,6.1-29.6,6.1l1.5,3.4l2.6,5.8
		c4.6-2.1,8.2-3.4,10.9-4.3c3.8-1.2,6-1.6,7.1-1.6c0.1,0,0.1,0,0.2,0c0.4,0,0.6,0,0.6,0c8.9,0,13.5,4.4,13.5,13.5v3.9
		c-3.7-1-8.5-1.6-14.3-1.6c-17.2,0-25,7.6-25,19.2c0,10.9,7,17.9,19.2,17.9c9.9,0,16.8-4.5,20.9-10.9l-0.2,10.3h10.5v-38.8
		C515.1,93.5,512.3,87.1,506.9,83.2z M504,118.8c-0.4,6.9-7.7,13.7-17.4,13.7c-6.6,0-10.6-2.7-10.6-9.4c0-6.6,4.5-10.2,14.8-10.2
		c4.9,0,9.6,0.8,13.3,1.5V118.8z"/>
</g>
</svg>
